<svg version="1.1" xmlns="http://www.w3.org/2000/svg" style="display: block;" viewBox="0 0 2048 1170" width="1344" height="768" preserveAspectRatio="none">
<defs>
	<linearGradient id="Gradient1" gradientUnits="userSpaceOnUse" x1="1077.38" y1="563.26" x2="1015.42" y2="543.355">
		<stop class="stop0" offset="0" stop-opacity="1" stop-color="rgb(255,207,25)"/>
		<stop class="stop1" offset="1" stop-opacity="1" stop-color="rgb(193,135,39)"/>
	</linearGradient>
	<linearGradient id="Gradient2" gradientUnits="userSpaceOnUse" x1="783.01" y1="519.023" x2="849.052" y2="498.218">
		<stop class="stop0" offset="0" stop-opacity="1" stop-color="rgb(61,24,153)"/>
		<stop class="stop1" offset="1" stop-opacity="1" stop-color="rgb(92,52,198)"/>
	</linearGradient>
	<linearGradient id="Gradient3" gradientUnits="userSpaceOnUse" x1="707.328" y1="529.366" x2="776.621" y2="509.396">
		<stop class="stop0" offset="0" stop-opacity="1" stop-color="rgb(57,18,154)"/>
		<stop class="stop1" offset="1" stop-opacity="1" stop-color="rgb(85,43,203)"/>
	</linearGradient>
	<linearGradient id="Gradient4" gradientUnits="userSpaceOnUse" x1="690.436" y1="586.498" x2="763.553" y2="512.547">
		<stop class="stop0" offset="0" stop-opacity="1" stop-color="rgb(105,71,231)"/>
		<stop class="stop1" offset="1" stop-opacity="1" stop-color="rgb(156,124,255)"/>
	</linearGradient>
	<linearGradient id="Gradient5" gradientUnits="userSpaceOnUse" x1="1051.18" y1="670.404" x2="1007.73" y2="219.387">
		<stop class="stop0" offset="0" stop-opacity="1" stop-color="rgb(136,105,247)"/>
		<stop class="stop1" offset="1" stop-opacity="1" stop-color="rgb(166,134,248)"/>
	</linearGradient>
	<linearGradient id="Gradient6" gradientUnits="userSpaceOnUse" x1="1018.67" y1="1056.85" x2="1006.27" y2="94.1252">
		<stop class="stop0" offset="0" stop-opacity="1" stop-color="rgb(99,55,232)"/>
		<stop class="stop1" offset="1" stop-opacity="1" stop-color="rgb(179,149,248)"/>
	</linearGradient>
</defs>
<path transform="translate(0,0)" fill="rgb(254,254,254)" d="M 0 0 L 741.503 0 L 766.011 0 L 938.806 0 L 963.51 0 L 1596.96 0 L 1620.89 0 L 1738.69 0 L 1763.02 0 L 1928.14 0 L 1951.1 0 L 2048 0 L 2048 1170 L 0 1170 L 0 0 z"/>
<path transform="translate(0,0)" fill="rgb(250,249,250)" d="M 938.806 0 L 963.51 0 C 963.4 7.18577 963.691 13.9073 963.986 21.0782 L 939.034 20.8929 C 938.473 13.5448 938.652 7.35219 938.806 0 z"/>
<path transform="translate(0,0)" fill="rgb(250,249,250)" d="M 741.503 0 L 766.011 0 C 765.871 6.8276 766.039 14.1285 766.088 20.9952 L 741.794 20.88 L 741.503 0 z"/>
<path transform="translate(0,0)" fill="rgb(250,249,250)" d="M 1738.69 0 L 1763.02 0 L 1763.07 20.2565 C 1755.98 21.0911 1746.2 21.0078 1738.86 21.1378 L 1738.69 0 z"/>
<path transform="translate(0,0)" fill="rgb(250,249,250)" d="M 1596.96 0 L 1620.89 0 C 1620.98 6.84127 1620.76 14.231 1620.68 21.1187 C 1612.79 21.0208 1604.9 20.7927 1597.01 20.4346 C 1596.77 13.5952 1596.89 6.8394 1596.96 0 z"/>
<path transform="translate(0,0)" fill="rgb(250,249,250)" d="M 1928.14 0 L 1951.1 0 L 1951.12 20.7919 L 1927.97 21.1602 L 1928.14 0 z"/>
<path transform="translate(0,0)" fill="url(#Gradient6)" d="M 770.862 96.4241 C 771.322 96.3783 771.783 96.3389 772.244 96.3058 C 797.587 94.6886 830.87 95.7847 856.911 95.8295 L 1008.74 95.9723 L 1166.49 95.9272 C 1256.45 95.849 1354.05 91.7148 1426.49 155.525 C 1507.84 227.179 1504.24 342.505 1504.43 441.396 L 1504.48 594.648 L 1504.48 728.951 C 1504.44 771.254 1505.83 810.22 1498.43 852.221 C 1474.64 987.341 1392.33 1045.69 1260.25 1054.88 C 1258.12 1055.06 1256 1055.22 1253.88 1055.35 C 1218.63 1057.58 1180.43 1056.96 1144.91 1056.96 L 986.763 1056.95 L 858.038 1057 C 768.493 1056.98 672.614 1059.13 600.471 996.591 C 514.475 922.049 521.75 817.238 521.928 714.328 L 522.07 560.774 L 521.942 428.331 C 521.875 380.437 519.899 335.058 529.692 287.751 C 556.443 158.517 645.978 103.76 770.862 96.4241 z"/>
<path transform="translate(0,0)" fill="rgb(54,17,142)" d="M 1137.58 286.966 C 1149.27 266.063 1193.22 219.21 1210.78 201.086 C 1250.8 159.789 1303.06 240.637 1307.43 275.856 C 1318.59 323.328 1312.78 342.434 1302.88 385.225 C 1320.26 427.704 1333.7 452.646 1332.97 501.074 C 1346.3 501.748 1362.06 502.897 1375.14 505.506 L 1375.71 506.664 C 1369.89 507.129 1362.56 503.502 1358.66 504.526 C 1359.58 510.368 1372.01 508.306 1376.47 511.716 L 1375.37 512.442 C 1390.41 518.079 1409.87 526.98 1415.8 542.67 C 1431.2 583.484 1391.21 633.899 1359.83 656.024 C 1352.04 661.515 1338.84 666.967 1330.58 670.725 C 1345.27 687.404 1355.27 714.319 1348.13 735.83 C 1337.61 767.476 1315.6 794.117 1290.95 815.949 C 1282.38 823.537 1273.26 830.077 1264.74 837.497 C 1277.63 879.829 1253.13 894.711 1217 907.748 C 1237.19 911.456 1324.63 925.317 1335.56 935.383 L 1336.29 937.481 C 1324.52 959.622 1137.1 957.873 1109.23 951.648 C 1104.95 950.692 1081.38 957.64 1076.3 958.927 C 1064.63 961.831 1052.85 964.271 1040.99 966.242 C 984.884 975.203 927.507 977.132 870.92 971.952 C 857.124 970.69 812.492 965.56 802.861 957.449 C 799.558 955.57 798.117 955.18 796.731 951.702 C 797.836 942.429 814.456 937.71 822.279 932.923 C 847.692 917.373 846.457 902.004 844.365 875.066 C 813.229 865.009 778.882 844.199 754.022 823.458 C 734.311 808.218 710.668 786.519 700.879 763.145 C 697.782 756.9 697.099 754.331 695.324 747.766 C 692.644 738.856 693.608 723.343 694.05 714.07 C 642.733 693.888 613.796 635.208 618.248 581.993 C 618.879 571.347 622.328 559.923 622.836 549.393 C 624.314 518.778 632.123 473.808 663.305 458.797 C 669.038 457.112 671.843 457.15 674.582 462.555 C 674.396 464.192 674.413 465.288 673.608 466.735 C 670.434 472.326 658.199 486.975 651.363 486.546 C 648.135 489.48 645.424 492.154 644.263 496.484 L 644.864 500.245 C 654.292 487.396 660.018 482.032 675.283 477.65 L 673.192 475.154 C 674.939 471.311 678.568 472.023 681.585 469.12 C 692.905 458.268 699.988 443.559 707.709 430.158 C 714.016 419.209 712.607 412.157 708.163 400.721 C 699.095 377.38 691.05 350.318 694.57 324.854 C 700.28 283.536 720.048 240.215 752.793 213.395 C 761.033 206.642 773.341 199.749 784.42 201.169 C 790.136 201.913 795.529 204.243 799.989 207.895 C 812.093 217.735 827.553 239.968 838.323 252.591 C 848.074 264.019 860.107 277.208 869.219 288.796 C 900.081 275.397 983.257 249.749 1015.05 252.467 L 1015.7 253.902 C 1023.51 252.754 1032.15 250.574 1039.93 248.78 C 1040.03 259.009 1040.43 270.902 1040.05 281.003 C 1062.44 275.076 1081.88 267.96 1103.36 259.536 C 1105.75 261.068 1105.49 261.95 1106.71 264.993 C 1114.97 270.825 1119.11 278.896 1113.24 288.003 C 1120.73 286.046 1129.78 286.631 1137.58 286.966 z"/>
<path transform="translate(0,0)" fill="rgb(250,249,250)" d="M 663.305 458.797 C 669.038 457.112 671.843 457.15 674.582 462.555 C 674.396 464.192 674.413 465.288 673.608 466.735 C 670.434 472.326 658.199 486.975 651.363 486.546 C 648.135 489.48 645.424 492.154 644.263 496.484 L 644.864 500.245 C 629.362 525.383 627.898 572.944 634.372 601.084 C 657.379 701.075 763.138 706.686 845.938 701.68 C 819.31 693.39 774.39 676.354 760.88 650.219 C 757.966 644.583 756.989 638.878 755.98 632.671 C 852.319 719.508 1080.02 679.68 1195.41 650.124 C 1199.22 649.147 1206.64 643.604 1210.78 642.315 C 1238.53 629.847 1267.77 612.999 1288.37 590.067 C 1296.24 581.326 1302.77 571.468 1307.75 560.812 C 1308.31 569.983 1309.31 582.502 1308.71 591.426 C 1306.76 620.151 1287.31 647.144 1268.78 668.102 C 1258.39 679.867 1246.7 690.414 1233.93 699.54 C 1146.62 760.202 1016.86 787.832 911.97 792.192 C 866.763 791.956 815.503 788.121 772.659 773.028 C 790.527 773.939 811.215 774.927 828.918 773.368 C 938.209 763.748 1070.12 721.868 1166.22 671.118 L 1165.16 669.415 C 1088.75 707.554 1030.89 720.173 947.361 732.318 C 930.124 734.567 912.829 736.339 895.494 737.633 C 889.701 738.103 873.807 738.902 868.749 739.898 C 851.435 739.041 822.94 740.117 804.132 739.9 C 774.818 735.079 751.019 737.745 719.878 724.702 C 714.798 724.01 699.455 716.605 694.05 714.07 C 642.733 693.888 613.796 635.208 618.248 581.993 C 618.879 571.347 622.328 559.923 622.836 549.393 C 624.314 518.778 632.123 473.808 663.305 458.797 z"/>
<path transform="translate(0,0)" fill="rgb(254,254,254)" d="M 719.878 724.702 C 727.228 724.258 752.671 732.745 762.39 733.797 C 793.807 737.199 824.97 740.165 856.529 738.637 C 825.406 737.957 767.629 733.934 738.393 726.653 C 744.233 726.426 764.876 730.769 772.255 731.522 C 789.323 733.263 806.112 734.611 823.28 734.952 C 842.659 735.406 862.049 735.161 881.412 734.217 C 898.655 733.308 932.351 729.206 947.361 732.318 C 930.124 734.567 912.829 736.339 895.494 737.633 C 889.701 738.103 873.807 738.902 868.749 739.898 C 851.435 739.041 822.94 740.117 804.132 739.9 C 774.818 735.079 751.019 737.745 719.878 724.702 z"/>
<path transform="translate(0,0)" fill="rgb(54,17,142)" d="M 664.158 470.743 C 669.664 470.604 669.328 470.252 673.608 466.735 C 670.434 472.326 658.199 486.975 651.363 486.546 C 655.594 481.251 659.859 475.983 664.158 470.743 z"/>
<path transform="translate(0,0)" fill="rgb(38,34,66)" d="M 663.305 458.797 C 669.038 457.112 671.843 457.15 674.582 462.555 C 674.396 464.192 674.413 465.288 673.608 466.735 C 669.328 470.252 669.664 470.604 664.158 470.743 C 665.25 468.87 666.247 466.8 667.231 464.857 C 666.636 461.096 666.534 461.997 663.305 458.797 z"/>
<path transform="translate(0,0)" fill="rgb(130,114,198)" d="M 1165.16 669.415 C 1169.46 665.987 1183.61 659.011 1189.4 655.434 C 1183.23 661.129 1173.98 667.607 1166.22 671.118 L 1165.16 669.415 z"/>
<path transform="translate(0,0)" fill="rgb(192,174,246)" d="M 675.283 477.65 L 673.192 475.154 C 674.939 471.311 678.568 472.023 681.585 469.12 C 692.905 458.268 699.988 443.559 707.709 430.158 C 714.016 419.209 712.607 412.157 708.163 400.721 C 699.095 377.38 691.05 350.318 694.57 324.854 C 700.28 283.536 720.048 240.215 752.793 213.395 C 761.033 206.642 773.341 199.749 784.42 201.169 C 790.136 201.913 795.529 204.243 799.989 207.895 C 812.093 217.735 827.553 239.968 838.323 252.591 C 848.074 264.019 860.107 277.208 869.219 288.796 C 900.081 275.397 983.257 249.749 1015.05 252.467 L 1015.7 253.902 C 1007.51 256.247 977.211 262.541 972.613 264.716 C 963.445 266.398 938.944 273.085 929.939 276.521 C 914.225 280.635 883.34 292.623 869.02 300.843 C 856.462 288.599 847.927 279.54 836.137 266.622 C 819.137 247.995 803.216 221.557 782.164 209.015 C 749.016 224.769 729.108 251.916 716.732 285.769 C 700.408 330.423 708.335 370.469 721.258 415.096 C 711.695 436.529 703.609 452.742 696.058 475.315 C 688.402 475.673 682.702 475.647 675.283 477.65 z"/>
<path transform="translate(0,0)" fill="rgb(192,174,246)" d="M 1137.58 286.966 C 1149.27 266.063 1193.22 219.21 1210.78 201.086 C 1250.8 159.789 1303.06 240.637 1307.43 275.856 C 1318.59 323.328 1312.78 342.434 1302.88 385.225 C 1320.26 427.704 1333.7 452.646 1332.97 501.074 C 1346.3 501.748 1362.06 502.897 1375.14 505.506 L 1375.71 506.664 C 1369.89 507.129 1362.56 503.502 1358.66 504.526 C 1359.58 510.368 1372.01 508.306 1376.47 511.716 L 1375.37 512.442 C 1362.07 508.865 1342.32 507.463 1328.81 509.931 L 1327.11 509.621 C 1327.02 509.452 1322.86 466.925 1320.74 458.587 C 1316.57 436.371 1302.1 401.925 1290.89 382.426 C 1315.92 324.861 1304.83 246.378 1250.1 208.686 C 1229.52 195.183 1213.52 205.973 1200.85 223.243 C 1183.32 247.113 1157.78 272.861 1143.24 298.094 C 1127.15 291.188 1125.57 294.043 1110 295.687 L 1109.26 293.883 L 1113.24 288.003 C 1120.73 286.046 1129.78 286.631 1137.58 286.966 z"/>
<path transform="translate(0,0)" fill="rgb(192,174,246)" d="M 1106.71 264.993 C 1114.97 270.825 1119.11 278.896 1113.24 288.003 L 1109.26 293.883 C 1111.39 284.165 1108.85 274.477 1106.71 264.993 z"/>
<path transform="translate(0,0)" fill="url(#Gradient5)" d="M 1169.88 326.593 C 1187.91 295.725 1207.12 264.212 1224.93 233.093 C 1228.51 226.83 1237.77 222.719 1244.56 227.451 C 1258.97 239.414 1266.48 262.612 1270.6 280.396 C 1277.63 319.107 1273.95 338.926 1257.87 372.768 C 1284.8 415.535 1300.67 464.321 1304.07 514.743 C 1304.68 523.348 1305.52 541.291 1303.3 549.391 C 1295.29 578.677 1269.33 602.922 1244.27 617.828 C 1199.08 644.716 1148.52 657.275 1097.35 666.511 C 1075.83 670.396 1055.23 674.926 1033.13 673.641 C 1002.37 671.852 971.046 667.942 940.61 663.152 C 929.483 661.401 916.333 657.67 906.143 656.193 C 901.628 655.396 896.992 655.817 891.084 654.625 C 861.909 648.814 835.312 633.945 815.082 612.136 C 793.714 583.626 813.336 569.908 801.589 541.154 C 800.179 581.54 773.14 622.068 728.635 618.174 C 720.293 617.444 704.566 616.095 698.732 610.02 C 697.869 607.272 697.799 608.387 698.764 605.839 C 701.934 606.751 709.469 610.532 711.946 610.827 C 726.512 612.564 752.036 608.566 761.892 597.393 C 759.702 597.826 753.788 600.143 751.251 600.953 C 742.456 603.752 733.206 604.833 724.003 604.139 C 704.932 602.67 695.428 595.484 683.533 581.794 C 681.048 581.111 674.429 571.032 673.393 568.456 C 660.007 535.177 672.32 507.908 702.641 493.544 C 708.881 487.663 723.029 488.103 731.133 487.903 C 725.353 486.425 718.176 488.259 713.334 485.442 C 713.341 482.98 715.692 474.987 716.848 472.944 C 727.273 454.519 749.788 373.865 762.865 363.971 C 748.179 329.103 740.163 279.078 764.477 246.274 C 772.883 234.932 783.928 241.972 791.343 250.109 C 800.155 259.779 808.167 270.001 816.673 279.973 C 831.866 297.447 847.193 314.803 862.652 332.041 C 915.021 309.254 963.312 295.567 1018.11 279.063 C 1013.83 291.825 1008.77 302.922 1003.11 315.106 C 1024.73 309.393 1066.74 297.29 1087.58 293.88 C 1083.7 304.226 1079.66 315.67 1075.19 325.689 C 1113.04 317.121 1131.75 315.908 1169.88 326.593 z"/>
<path transform="translate(0,0)" fill="rgb(38,34,66)" d="M 762.865 363.971 C 780.652 358.66 811.515 371.779 821.228 387.179 C 820.688 412.368 786.662 473.787 776.931 500.909 C 796.269 518.807 792.15 523.415 801.589 541.154 C 800.179 581.54 773.14 622.068 728.635 618.174 C 720.293 617.444 704.566 616.095 698.732 610.02 C 697.869 607.272 697.799 608.387 698.764 605.839 C 701.934 606.751 709.469 610.532 711.946 610.827 C 726.512 612.564 752.036 608.566 761.892 597.393 C 759.702 597.826 753.788 600.143 751.251 600.953 C 742.456 603.752 733.206 604.833 724.003 604.139 C 704.932 602.67 695.428 595.484 683.533 581.794 C 681.048 581.111 674.429 571.032 673.393 568.456 C 660.007 535.177 672.32 507.908 702.641 493.544 C 708.881 487.663 723.029 488.103 731.133 487.903 C 725.353 486.425 718.176 488.259 713.334 485.442 C 713.341 482.98 715.692 474.987 716.848 472.944 C 727.273 454.519 749.788 373.865 762.865 363.971 z"/>
<path transform="translate(0,0)" fill="url(#Gradient4)" d="M 731.133 487.903 C 767.925 492.427 802.226 533.824 782.936 568.241 C 776.071 586.534 773.166 585.305 761.892 597.393 C 759.702 597.826 753.788 600.143 751.251 600.953 C 742.456 603.752 733.206 604.833 724.003 604.139 C 704.932 602.67 695.428 595.484 683.533 581.794 C 681.048 581.111 674.429 571.032 673.393 568.456 C 660.007 535.177 672.32 507.908 702.641 493.544 C 708.881 487.663 723.029 488.103 731.133 487.903 z"/>
<path transform="translate(0,0)" fill="url(#Gradient3)" d="M 731.133 487.903 C 767.925 492.427 802.226 533.824 782.936 568.241 C 785.185 542.444 778.996 517.609 754.928 504.003 C 739.209 495.31 720.683 493.204 703.414 498.149 C 701.215 497.937 702.182 498.311 700.413 496.978 L 698.868 497.488 C 701.834 495.485 701.318 496.423 702.641 493.544 C 708.881 487.663 723.029 488.103 731.133 487.903 z"/>
<path transform="translate(0,0)" fill="rgb(63,20,156)" d="M 683.533 581.794 C 681.048 581.111 674.429 571.032 673.393 568.456 C 660.007 535.177 672.32 507.908 702.641 493.544 C 701.318 496.423 701.834 495.485 698.868 497.488 L 700.413 496.978 C 702.182 498.311 701.215 497.937 703.414 498.149 C 673.763 511.617 664.813 540.493 677.587 570.317 C 679.011 573.642 682.489 578.815 683.533 581.794 z"/>
<path transform="translate(0,0)" fill="rgb(247,207,35)" d="M 748.982 414.742 C 752.667 416.394 756.383 417.875 760.125 419.392 C 763.433 420.78 766.689 421.592 768.47 424.464 L 770.819 425.075 C 773.526 425.363 774.596 425.405 777.164 426.224 C 781.956 428.985 786.986 430.745 792.138 432.726 C 792.967 434.279 793.196 433.919 792.75 435.095 C 785.393 454.449 777.123 474.9 768.845 493.802 C 764.756 490.896 749.501 482.741 748.012 481.198 L 745.291 479.897 C 743.448 479.969 728.175 476.509 724.25 476 L 748.982 414.742 z"/>
<path transform="translate(0,0)" fill="rgb(247,207,35)" d="M 748.982 414.742 C 752.667 416.394 756.383 417.875 760.125 419.392 C 763.433 420.78 766.689 421.592 768.47 424.464 C 761.388 437.963 751.496 464.779 745.291 479.897 C 743.448 479.969 728.175 476.509 724.25 476 L 748.982 414.742 z"/>
<path transform="translate(0,0)" fill="rgb(38,34,66)" d="M 768.47 424.464 L 770.819 425.075 C 764.104 441.514 753.639 464.909 748.012 481.198 L 745.291 479.897 C 751.496 464.779 761.388 437.963 768.47 424.464 z"/>
<path transform="translate(0,0)" fill="rgb(250,249,250)" d="M 757.185 393.235 C 760.043 386.099 762.445 377.253 768.697 373.096 C 778.513 370.472 805.997 382.314 810.4 391.62 C 810.978 396.231 799.589 427.224 794.954 429.555 L 780.301 423.129 C 775.804 421.027 772.907 419.621 768.177 418.208 C 761.069 414.829 752.838 413.249 750.13 407.1 C 750.866 403.657 751.292 403.236 753.526 400.474 C 754.187 400.235 754.848 399.996 755.509 399.757 C 771.19 404.455 784.51 412.534 800.823 415.768 C 787.175 406.915 771.986 399.955 757.185 393.235 z"/>
<path transform="translate(0,0)" fill="url(#Gradient2)" d="M 821.228 387.179 C 827.597 402.112 819.38 415.776 814.22 430.005 C 805.473 454.118 792.955 480.189 791.418 506.079 C 801.954 520.535 805.11 524.611 810.423 541.651 C 818.367 567.135 802.278 586.646 818.169 608.371 L 815.082 612.136 C 793.714 583.626 813.336 569.908 801.589 541.154 C 792.15 523.415 796.269 518.807 776.931 500.909 C 786.662 473.787 820.688 412.368 821.228 387.179 z"/>
<path transform="translate(0,0)" fill="rgb(63,20,156)" d="M 818.169 608.371 C 839.896 635.918 873.704 646.544 906.143 656.193 C 901.628 655.396 896.992 655.817 891.084 654.625 C 861.909 648.814 835.312 633.945 815.082 612.136 L 818.169 608.371 z"/>
<path transform="translate(0,0)" fill="rgb(250,249,250)" d="M 1093.9 459.566 C 1125.02 456.865 1159.27 450.255 1190.66 446.98 C 1200.88 445.915 1221.42 442.215 1230.64 442.704 C 1232.54 445.507 1231.91 446.336 1232.04 450.213 C 1234.3 452.359 1236.96 455.331 1236.43 458.605 C 1234.72 469.123 1234.09 480.815 1233.33 491.122 C 1232.23 505.86 1223.79 523.176 1213.46 533.245 C 1189.9 558.02 1143.86 554.211 1120.77 531.013 C 1117.99 528.21 1111.41 519.873 1110.62 515.894 L 1111.26 514.303 C 1106.6 506.455 1093.08 480.667 1097.76 472.563 L 1095.69 471.814 C 1094.26 468.58 1094.18 463.271 1093.9 459.566 z"/>
<path transform="translate(0,0)" fill="rgb(38,34,66)" d="M 1093.9 459.566 C 1125.02 456.865 1159.27 450.255 1190.66 446.98 C 1200.88 445.915 1221.42 442.215 1230.64 442.704 C 1232.54 445.507 1231.91 446.336 1232.04 450.213 C 1232.11 453.707 1232.74 457.498 1230.85 460.114 C 1226.08 461.575 1222.3 460.57 1219.18 461.504 C 1211.61 462.098 1203.46 462.899 1195.93 463.297 C 1203.18 482.507 1196.07 500.433 1176.38 507.606 C 1166.56 511.229 1155.69 510.718 1146.26 506.191 C 1137.76 502.101 1131.3 494.73 1128.35 485.774 C 1126.41 480.057 1126.73 475.776 1126.86 469.817 C 1117.71 470.605 1106.72 471.28 1097.76 472.563 L 1095.69 471.814 C 1094.26 468.58 1094.18 463.271 1093.9 459.566 z"/>
<path transform="translate(0,0)" fill="rgb(98,52,193)" d="M 1232.04 450.213 C 1234.3 452.359 1236.96 455.331 1236.43 458.605 C 1234.72 469.123 1234.09 480.815 1233.33 491.122 C 1232.23 505.86 1223.79 523.176 1213.46 533.245 C 1189.9 558.02 1143.86 554.211 1120.77 531.013 C 1117.99 528.21 1111.41 519.873 1110.62 515.894 L 1111.26 514.303 C 1121.71 526.606 1131.79 534.543 1147.97 538.749 C 1164.96 543.164 1183.01 540.645 1198.14 531.748 C 1210.89 524.259 1220.09 511.953 1223.67 497.604 C 1225.54 490.082 1226.81 470.422 1223.18 462.732 C 1222.81 461.949 1220.41 461.76 1219.18 461.504 C 1222.3 460.57 1226.08 461.575 1230.85 460.114 C 1232.74 457.498 1232.11 453.707 1232.04 450.213 z"/>
<path transform="translate(0,0)" fill="rgb(250,249,250)" d="M 842.372 461.73 C 881.073 468.632 949.279 469.198 985.507 455.111 L 986.655 456.07 L 987.008 460.854 L 987.233 461.617 C 989.039 467.618 993.192 471.389 989.395 478.017 C 986.516 483.041 986.738 498.192 985.754 504.297 C 981.914 528.108 965.753 551.051 941.45 556.772 C 938.092 557.557 933.382 558.288 930.103 557.191 C 929.234 555.738 929.165 556.08 928.982 554.558 C 902.448 557.497 877.423 553.532 860.937 530.046 C 854.054 520.241 852.168 511.556 849.377 500.236 L 847.991 501.053 C 841.87 498.407 845.775 484.991 840.195 479.244 C 838.032 478.474 838.924 479.128 837.604 477.008 C 837.942 472.38 840.657 466.229 842.372 461.73 z"/>
<path transform="translate(0,0)" fill="rgb(38,34,66)" d="M 842.372 461.73 C 881.073 468.632 949.279 469.198 985.507 455.111 L 986.655 456.07 L 987.008 460.854 C 987.12 464.663 987.864 470.836 985.771 473.669 C 982.97 475.478 980.831 475.438 977.509 475.862 C 971.204 476.109 963.939 476.237 957.738 476.726 C 958.291 489.141 957.671 498.113 948.564 508.077 C 941.302 515.916 931.189 520.5 920.506 520.796 C 910.782 521.1 901.339 517.503 894.282 510.805 C 884.502 501.38 882.929 490.978 884.316 478.089 C 872.813 478.478 860.647 479.093 849.189 479.022 L 840.195 479.244 C 838.032 478.474 838.924 479.128 837.604 477.008 C 837.942 472.38 840.657 466.229 842.372 461.73 z"/>
<path transform="translate(0,0)" fill="rgb(98,52,193)" d="M 987.008 460.854 L 987.233 461.617 C 989.039 467.618 993.192 471.389 989.395 478.017 C 986.516 483.041 986.738 498.192 985.754 504.297 C 981.914 528.108 965.753 551.051 941.45 556.772 C 938.092 557.557 933.382 558.288 930.103 557.191 C 929.234 555.738 929.165 556.08 928.982 554.558 C 954.776 547.659 973.453 524.778 977.467 498.625 C 978.667 490.808 978.051 483.678 977.509 475.862 C 980.831 475.438 982.97 475.478 985.771 473.669 C 987.864 470.836 987.12 464.663 987.008 460.854 z"/>
<path transform="translate(0,0)" fill="rgb(98,52,193)" d="M 840.195 479.244 L 849.189 479.022 C 849.019 486.273 848.723 492.992 849.377 500.236 L 847.991 501.053 C 841.87 498.407 845.775 484.991 840.195 479.244 z"/>
<path transform="translate(0,0)" fill="rgb(38,34,66)" d="M 1048.96 545.737 C 1062.14 545.349 1087.15 542.069 1098.11 550.791 C 1103 554.689 1099.95 562.591 1096.26 566.77 C 1083.43 576.086 1021.97 571.493 1003.65 571.205 C 1001.39 571.169 997.724 569.158 995.837 567.87 C 992.62 565.846 989.927 563.004 989.054 559.23 C 990.966 543.178 1036.71 545.909 1048.96 545.737 z"/>
<path transform="translate(0,0)" fill="url(#Gradient1)" d="M 1047.02 548.049 C 1054.4 547.862 1082.29 544.868 1082.85 554.054 C 1079.54 559.149 1073.49 561.268 1067.79 562.73 C 1066.21 565.279 1067.08 564.437 1064.45 565.916 L 1031.56 565.962 L 1034.75 562.699 C 1028.4 562.053 1014.71 561.356 1011.06 555.927 L 1011.54 553.906 C 1018.59 547.814 1037.27 548.371 1047.02 548.049 z"/>
<path transform="translate(0,0)" fill="rgb(35,23,34)" d="M 1034.75 562.699 C 1045.75 563.237 1056.78 563.247 1067.79 562.73 C 1066.21 565.279 1067.08 564.437 1064.45 565.916 L 1031.56 565.962 L 1034.75 562.699 z"/>
<path transform="translate(0,0)" fill="rgb(142,99,57)" d="M 1064.45 565.916 C 1075.91 566.329 1084.71 568.059 1096.26 566.77 C 1083.43 576.086 1021.97 571.493 1003.65 571.205 C 1001.39 571.169 997.724 569.158 995.837 567.87 C 1007.96 566.963 1019.38 566.033 1031.56 565.962 L 1064.45 565.916 z"/>
<path transform="translate(0,0)" fill="rgb(98,52,193)" d="M 1270.75 710.073 C 1275.43 712.721 1276.85 713.628 1280.89 717.122 C 1264.46 741.087 1245.74 753.623 1222.24 770.337 C 1216.87 774.158 1206.1 779.326 1201.63 783.237 C 1198.22 785.148 1194.12 787.314 1190.89 789.382 C 1184.22 792.571 1171.89 798.082 1165.93 801.646 C 1158.9 804.554 1151.89 807.516 1144.91 810.534 C 1084.87 831.969 1036.77 847.459 971.011 847.229 C 959.124 847.187 938.096 846.046 926.934 842.257 C 931.635 838.645 935.056 835.934 937.575 830.378 C 937.706 829.825 937.838 829.271 937.969 828.718 L 938.134 827.874 C 939.763 819.905 936.636 814.192 938.109 807.982 C 940.672 806.274 941.552 806.738 944.91 806.493 C 943.82 805.989 921.318 806.779 917.543 806.772 C 924.835 805.051 932.509 806.083 939.804 804.379 C 954.183 803.212 980.144 797.965 994.569 795.173 C 1061.32 782.252 1141.28 763.327 1202.23 732.988 L 1201.98 734.434 C 1165.38 755.492 1112.57 768.547 1071.83 780.017 C 1066.31 781.572 1024.04 790.499 1023.24 791.105 C 1034.26 791.597 1039.22 788.465 1049.54 786.245 C 1053.45 785.63 1057.34 785.444 1061.22 784.573 C 1089.31 778.257 1116.66 769.518 1144.23 761.361 C 1147.98 760.25 1168.02 752.673 1169.98 754.301 C 1201.15 743.273 1243.07 728.296 1270.75 710.073 z"/>
<path transform="translate(0,0)" fill="rgb(63,20,156)" d="M 1202.23 732.988 L 1201.98 734.434 C 1165.38 755.492 1112.57 768.547 1071.83 780.017 C 1066.31 781.572 1024.04 790.499 1023.24 791.105 C 1034.26 791.597 1039.22 788.465 1049.54 786.245 C 1053.45 785.63 1057.34 785.444 1061.22 784.573 C 1089.31 778.257 1116.66 769.518 1144.23 761.361 C 1147.98 760.25 1168.02 752.673 1169.98 754.301 C 1159.49 759.163 1136.49 765.574 1124.77 769.049 C 1063.67 786.78 1001.37 800.062 938.347 808.792 C 940.271 816.769 942.345 822.871 937.575 830.378 C 937.706 829.825 937.838 829.271 937.969 828.718 L 938.134 827.874 C 939.763 819.905 936.636 814.192 938.109 807.982 C 940.672 806.274 941.552 806.738 944.91 806.493 C 943.82 805.989 921.318 806.779 917.543 806.772 C 924.835 805.051 932.509 806.083 939.804 804.379 C 954.183 803.212 980.144 797.965 994.569 795.173 C 1061.32 782.252 1141.28 763.327 1202.23 732.988 z"/>
<path transform="translate(0,0)" fill="rgb(250,249,250)" d="M 918.302 883.557 C 929.225 883.419 940.138 882.831 951.013 881.795 C 1043.13 872.315 1178.32 820.035 1252.71 765.023 C 1272.49 750.601 1290.33 733.681 1305.77 714.684 C 1289.18 765.384 1266.89 786.215 1224.99 820.47 C 1216.62 827.305 1205.65 833.407 1197.33 840.029 L 1196.78 840.473 C 1188.64 845.072 1177.43 851.663 1169.08 855.541 C 1157.7 861.889 1145.75 867.186 1133.4 871.364 C 1128.24 873.155 1094.66 882.717 1092.11 884.61 L 1092.61 880.392 C 1088.88 882.407 1075.48 885.4 1070.95 886.278 C 1023.46 895.466 965.918 892.092 918.302 883.557 z"/>
<path transform="translate(0,0)" fill="rgb(254,254,254)" d="M 1092.61 880.392 C 1102.28 877.087 1113.82 873.615 1123.54 870.423 C 1134.39 866.855 1159.46 853.929 1169.08 855.541 C 1157.7 861.889 1145.75 867.186 1133.4 871.364 C 1128.24 873.155 1094.66 882.717 1092.11 884.61 L 1092.61 880.392 z"/>
<path transform="translate(0,0)" fill="rgb(250,249,250)" d="M 803.743 819.841 C 810.732 818.559 831.559 820.094 839.675 820.418 C 856.819 821.256 873.989 821.45 891.148 821 C 895.393 820.864 915.392 819.476 917.142 820.552 C 914.951 823.046 913.62 823.683 910.849 825.349 C 894.148 830.977 885.099 832.265 867.484 833.158 C 856.587 832.175 847.293 830.942 836.512 829.343 C 825.731 826.118 814.699 822.178 803.743 819.841 z"/>
<path transform="translate(0,0)" fill="rgb(250,249,250)" d="M 1378.03 743.455 C 1383.9 735.167 1438.35 729.524 1438.15 751.843 C 1437.77 794.453 1385.5 797.775 1355.8 786.095 L 1355.64 785.136 L 1356.75 784.632 L 1352.45 783.404 C 1353.32 775.4 1371.3 748.684 1378.03 743.455 z"/>
<path transform="translate(0,0)" fill="rgb(54,17,142)" d="M 1378.03 743.455 C 1383.9 735.167 1438.35 729.524 1438.15 751.843 C 1437.77 794.453 1385.5 797.775 1355.8 786.095 L 1355.64 785.136 L 1356.75 784.632 C 1383.01 785.557 1418.92 787.136 1427.77 755.411 C 1433.72 734.061 1388.5 740.962 1378.03 743.455 z"/>
<path transform="translate(0,0)" fill="rgb(250,249,250)" d="M 722.565 829.216 C 734.082 847.091 754.581 874.028 768.214 892.195 C 762.809 894.461 758.69 896.219 753.018 897.89 C 742.518 898.897 732.916 899.596 722.908 895.203 C 702.738 886.349 687.896 857.102 680.31 837.596 C 696.968 838.431 707.556 835.336 722.565 829.216 z"/>
<path transform="translate(0,0)" fill="rgb(54,17,142)" d="M 1403.07 674.578 C 1416.59 671 1430.53 677.48 1421.52 692.609 C 1412.79 707.275 1364.62 705.878 1381.73 683.705 C 1383.12 681.939 1385.35 679.817 1387.62 679.531 C 1394.3 676.106 1395.59 675.861 1403.07 674.578 z"/>
<path transform="translate(0,0)" fill="rgb(250,249,250)" d="M 1403.07 674.578 C 1409.07 675.946 1414.62 676.764 1415.28 683.765 C 1411.35 693.967 1389.08 700.723 1383.7 689.88 C 1383.53 684.923 1384.6 683.554 1387.62 679.531 C 1394.3 676.106 1395.59 675.861 1403.07 674.578 z"/>
<path transform="translate(0,0)" fill="rgb(54,17,142)" d="M 1329.13 844.614 C 1335.78 842.979 1348.38 843.039 1352.06 849.918 C 1354.75 869.007 1300.25 870.092 1314.06 852.83 C 1315.44 854.219 1314.92 853.339 1314.98 855.875 C 1317.16 847.476 1321.64 846.743 1329.13 844.614 z"/>
<path transform="translate(0,0)" fill="rgb(250,249,250)" d="M 1329.13 844.614 C 1333.25 845.138 1337.26 845.172 1340.47 847.678 C 1344.51 856.292 1322.26 863.222 1314.98 855.875 C 1317.16 847.476 1321.64 846.743 1329.13 844.614 z"/>
<path transform="translate(0,0)" fill="rgb(38,34,66)" d="M 768.214 892.195 C 769.094 892.957 769.71 893.055 769.809 894.072 C 770.727 903.56 757.288 904.798 750.553 905.116 C 742.392 905.474 734.215 905.162 726.105 904.183 C 733.746 903.154 746.912 902.199 753.018 897.89 C 758.69 896.219 762.809 894.461 768.214 892.195 z"/>
<path transform="translate(0,0)" fill="rgb(192,174,246)" d="M 1041.95 257.401 C 1047.57 259.253 1047.61 270.863 1048.12 276.03 C 1044.78 275.677 1044.65 276.174 1042.12 274.339 C 1039.8 268.516 1041.13 263.755 1041.95 257.401 z"/>
<path transform="translate(0,0)" fill="rgb(250,249,250)" d="M 1596.14 69.1363 C 1605.13 69.4164 1611.54 69.4704 1620.5 68.9097 C 1620.32 77.0063 1620.34 85.1064 1620.57 93.2019 C 1612.47 93.1539 1604.37 93.2431 1596.28 93.4694 C 1596.07 85.4824 1596.16 77.1531 1596.14 69.1363 z"/>
<path transform="translate(0,0)" fill="rgb(250,249,250)" d="M 938.944 44.8982 C 947.126 45.2226 955.312 45.4306 963.5 45.522 L 963.282 68.9305 L 939.063 68.9658 L 938.944 44.8982 z"/>
<path transform="translate(0,0)" fill="rgb(250,249,250)" d="M 1694.61 927.463 C 1702.42 927.84 1710.62 927.759 1718.47 927.791 C 1718.37 935.666 1719.01 943.192 1718.63 951.21 C 1709.33 951.115 1703.22 951.253 1693.98 952.108 C 1693.94 943.743 1693.77 935.795 1694.61 927.463 z"/>
<path transform="translate(0,0)" fill="rgb(250,249,250)" d="M 20.5548 45.314 C 28.7498 45.1645 36.9472 45.198 45.1407 45.4145 L 45.0245 68.9634 L 20.51 68.9978 L 20.5548 45.314 z"/>
<path transform="translate(0,0)" fill="rgb(250,249,250)" d="M 259.879 403.985 L 284.441 404.013 C 284.361 410.6 284.506 421.024 283.733 427.232 C 275.709 427.389 267.687 427.624 259.668 427.937 C 259.397 420.241 259.724 411.749 259.879 403.985 z"/>
<path transform="translate(0,0)" fill="rgb(250,249,250)" d="M 1596.57 713.747 C 1604.43 714.063 1613.2 713.925 1621.13 713.966 L 1620.9 737.292 L 1596.09 737.189 C 1596.03 729.612 1596.38 721.374 1596.57 713.747 z"/>
<path transform="translate(0,0)" fill="rgb(250,249,250)" d="M 1545.9 70.0259 C 1554.1 70.0002 1562.3 70.0295 1570.49 70.1138 C 1570.44 77.9058 1570.46 85.6981 1570.56 93.4896 L 1545.93 93.3096 L 1545.9 70.0259 z"/>
<path transform="translate(0,0)" fill="rgb(250,249,250)" d="M 1113.93 22.0494 L 1138.16 21.725 C 1138.1 29.851 1138.16 36.8694 1138.6 44.9775 L 1113.93 45.262 L 1113.93 22.0494 z"/>
<path transform="translate(0,0)" fill="rgb(250,249,250)" d="M 1597.09 1121.83 L 1620.98 1122.05 C 1621.51 1130.22 1622.16 1137.65 1621.62 1145.84 C 1615.97 1145.22 1604.06 1145.47 1597.92 1145.44 C 1597.42 1137.64 1597.68 1129.93 1597.09 1121.83 z"/>
<path transform="translate(0,0)" fill="rgb(250,249,250)" d="M 449.765 21.4245 C 452.779 21.169 451.915 20.8114 454.185 22.1081 C 456.254 27.3719 455.336 38.9054 455.167 44.9724 L 435.751 45.0294 C 432.877 44.6206 434.089 45.1778 431.913 43.4721 C 430.252 38.41 430.993 27.5114 431.102 21.6532 C 437.617 21.9512 443.272 21.6845 449.765 21.4245 z"/>
<path transform="translate(0,0)" fill="rgb(250,249,250)" d="M 890 46.0312 L 914.214 45.8882 C 914.095 54.1516 914.183 60.8788 914.637 69.1251 L 889.913 69.3781 L 890 46.0312 z"/>
<path transform="translate(0,0)" fill="rgb(250,249,250)" d="M 1164.21 21.8972 C 1172.12 21.7399 1180.53 21.8894 1188.49 21.8919 L 1188.92 44.8107 C 1181.08 45.109 1171.99 44.9165 1164.05 44.9418 L 1164.21 21.8972 z"/>
<path transform="translate(0,0)" fill="rgb(250,249,250)" d="M 1663.77 618.501 C 1664.68 618.351 1666.99 618.338 1668.04 618.3 C 1671.92 622.577 1670.52 634.351 1671.08 641.97 L 1653.75 641.874 C 1649.53 641.737 1650.19 642.427 1647.6 640.158 C 1645.81 633.942 1646.82 625.41 1646.98 618.51 L 1663.77 618.501 z"/>
<path transform="translate(0,0)" fill="rgb(250,249,250)" d="M 1835.86 570.991 L 1859.95 570.822 L 1860.06 594.061 C 1852.07 593.839 1843.83 593.968 1835.81 594 L 1835.86 570.991 z"/>
<path transform="translate(0,0)" fill="rgb(250,249,250)" d="M 1139.81 46.5001 C 1146.23 46.7422 1156.77 45.7483 1163.49 45.2902 C 1163.41 53.4116 1163.29 60.7326 1163.83 68.8402 C 1156.87 69.2494 1146.89 68.9855 1139.69 69.0228 C 1139.58 61.5152 1139.62 54.0061 1139.81 46.5001 z"/>
<path transform="translate(0,0)" fill="rgb(250,249,250)" d="M 235.031 21.7894 C 243.674 22.9159 250.907 22.5078 259.504 21.8283 L 259.068 44.7897 L 235.008 45.327 L 235.031 21.7894 z"/>
<path transform="translate(0,0)" fill="rgb(250,249,250)" d="M 45.851 21.839 L 70.0353 21.848 L 70.251 44.4485 C 63.5909 45.355 53.0411 44.9016 46.3289 44.3798 C 45.8323 37.682 45.9467 28.7147 45.851 21.839 z"/>
<path transform="translate(0,0)" fill="rgb(250,249,250)" d="M 1894.25 45.5004 C 1899.66 44.9728 1901.82 43.8511 1905.78 47.7247 C 1907.71 52.3283 1906.32 62.6924 1906.06 68.4748 C 1902.29 68.8364 1895.73 68.7166 1891.75 68.7682 C 1889.56 68.8215 1887.63 68.7318 1885.44 68.6379 C 1880.88 63.8434 1882.88 53.23 1883.02 45.5241 L 1894.25 45.5004 z"/>
<path transform="translate(0,0)" fill="rgb(250,249,250)" d="M 671.765 46.4736 L 675.585 46.2753 C 679.063 49.9146 677.613 62.0243 678.038 68.8953 L 660.75 68.9778 C 659.018 68.8851 656.158 69.1 655.297 68.0873 C 652.187 64.4316 653.185 51.2848 653.241 46.4909 L 671.765 46.4736 z"/>
<path transform="translate(0,0)" fill="rgb(250,249,250)" d="M 1621.12 833.12 C 1629.07 833.106 1637.88 833.534 1645.89 833.75 C 1645.77 841.234 1645.98 848.661 1646.15 856.142 L 1621.9 856.194 C 1621.89 847.98 1621.71 841.308 1621.12 833.12 z"/>
<path transform="translate(0,0)" fill="rgb(250,249,250)" d="M 1646.26 666.578 L 1670.06 666.506 L 1669.76 689.49 C 1663.67 690.057 1652.5 689.815 1646.02 689.861 C 1645.96 682.238 1646.18 674.233 1646.26 666.578 z"/>
<path transform="translate(0,0)" fill="rgb(250,249,250)" d="M 718.027 21.61 C 725.852 21.8408 733.681 21.933 741.51 21.8866 L 741.062 45.1056 L 717.929 44.9944 L 718.027 21.61 z"/>
<path transform="translate(0,0)" fill="rgb(250,249,250)" d="M 1621.86 45.8305 L 1645.37 45.8253 C 1645.14 53.5681 1645.3 61.2687 1645.4 69.0132 L 1621.83 68.894 L 1621.86 45.8305 z"/>
<path transform="translate(0,0)" fill="rgb(250,249,250)" d="M 678.851 22.0818 L 701.862 21.4741 C 701.771 28.8844 701.448 37.8076 702.024 45.058 C 694.274 45.0497 686.525 45.1917 678.78 45.4841 C 678.653 37.9578 678.316 29.492 678.851 22.0818 z"/>
<path transform="translate(0,0)" fill="rgb(250,249,250)" d="M 1987.76 571.45 C 1990.37 570.982 1996.92 571.179 1999.89 571.192 C 1999.59 578.422 2001.38 586.571 1998.86 592.24 C 1995.5 594.701 1995.1 593.833 1990.01 593.887 L 1976.93 594.06 C 1976.72 586.553 1976.33 579.052 1975.75 571.564 C 1979.65 571.615 1983.84 571.491 1987.76 571.45 z"/>
<path transform="translate(0,0)" fill="rgb(250,249,250)" d="M 143.111 21.4686 C 148.857 22.0453 159.795 21.8031 165.95 21.8359 L 166.138 44.8785 C 158.26 45.167 151.587 45.1298 143.76 44.2139 C 143.068 38.2361 143.195 27.8549 143.111 21.4686 z"/>
<path transform="translate(0,0)" fill="rgb(250,249,250)" d="M 196.255 69.5017 C 200.616 69.1292 206.212 69.1022 210.681 68.9507 C 210.921 74.7021 212.453 88.4823 208.985 92.7037 L 205.249 92.9188 L 188.789 93.2674 C 188.763 86.3293 187.921 77.5396 189.753 71.3089 C 192.22 68.8658 191.754 69.6338 196.255 69.5017 z"/>
<path transform="translate(0,0)" fill="rgb(250,249,250)" d="M 702.024 45.058 C 706.551 45.0124 713.603 44.7176 717.929 44.9944 C 717.179 52.8571 717.455 61.2017 718.01 69.0693 L 702.121 68.8287 L 702.024 45.058 z"/>
</svg>